<svg width="257" height="164" viewBox="0 0 257 164" fill="none" xmlns="http://www.w3.org/2000/svg">
<g filter="url(#filter0_d_3_16)">
<rect x="30" y="15" width="197" height="104" rx="52" fill="#161616"/>
<rect x="31" y="16" width="195" height="102" rx="51" stroke="white" stroke-opacity="0.9" stroke-width="2"/>
<path d="M70.0898 57.1938L62.9355 79H57.1724L66.9463 52.6953H70.6138L70.0898 57.1938ZM76.0337 79L68.8613 57.1938L68.2832 52.6953H71.9868L81.8149 79H76.0337ZM75.7085 69.208V73.4536H61.8154V69.208H75.7085ZM95.2744 74.3208V59.4521H100.478V79H95.5815L95.2744 74.3208ZM95.8525 70.3101L97.3882 70.2739C97.3882 71.5747 97.2376 72.7852 96.9365 73.9053C96.6354 75.0133 96.1838 75.9769 95.5815 76.7959C94.9793 77.6029 94.2205 78.2352 93.3052 78.6929C92.3898 79.1385 91.3118 79.3613 90.0713 79.3613C89.1198 79.3613 88.2406 79.2288 87.4336 78.9639C86.6387 78.6868 85.9521 78.2593 85.374 77.6812C84.8079 77.091 84.3623 76.3382 84.0371 75.4229C83.724 74.4954 83.5674 73.3813 83.5674 72.0806V59.4521H88.7705V72.1167C88.7705 72.6948 88.8368 73.1826 88.9692 73.5801C89.1138 73.9775 89.3125 74.3027 89.5654 74.5557C89.8184 74.8086 90.1134 74.9893 90.4507 75.0977C90.8 75.2061 91.1854 75.2603 91.6069 75.2603C92.6789 75.2603 93.522 75.0435 94.1362 74.6099C94.7625 74.1763 95.2021 73.5861 95.4551 72.8394C95.7201 72.0806 95.8525 71.2375 95.8525 70.3101ZM115.997 74.7363V51.25H121.236V79H116.521L115.997 74.7363ZM103.639 69.4609V69.0815C103.639 67.5881 103.808 66.2331 104.145 65.0166C104.482 63.7881 104.976 62.7342 105.626 61.855C106.277 60.9757 107.078 60.2952 108.029 59.8135C108.981 59.3317 110.065 59.0908 111.281 59.0908C112.425 59.0908 113.425 59.3317 114.28 59.8135C115.147 60.2952 115.882 60.9818 116.484 61.873C117.099 62.7523 117.592 63.7941 117.966 64.9985C118.339 66.1909 118.61 67.4977 118.779 68.9189V69.75C118.61 71.111 118.339 72.3757 117.966 73.5439C117.592 74.7122 117.099 75.736 116.484 76.6152C115.882 77.4824 115.147 78.1569 114.28 78.6387C113.413 79.1204 112.401 79.3613 111.245 79.3613C110.029 79.3613 108.945 79.1144 107.993 78.6206C107.054 78.1268 106.259 77.4342 105.608 76.543C104.97 75.6517 104.482 74.6038 104.145 73.3994C103.808 72.195 103.639 70.8822 103.639 69.4609ZM108.842 69.0815V69.4609C108.842 70.2679 108.903 71.0207 109.023 71.7192C109.155 72.4178 109.366 73.0381 109.655 73.5801C109.956 74.11 110.342 74.5256 110.812 74.8267C111.293 75.1157 111.877 75.2603 112.564 75.2603C113.455 75.2603 114.19 75.0615 114.768 74.6641C115.346 74.2546 115.786 73.6945 116.087 72.9839C116.4 72.2733 116.581 71.4543 116.629 70.5269V68.1602C116.593 67.4014 116.484 66.7209 116.304 66.1187C116.135 65.5044 115.882 64.9805 115.545 64.5469C115.22 64.1133 114.81 63.776 114.316 63.5352C113.835 63.2943 113.263 63.1738 112.6 63.1738C111.926 63.1738 111.347 63.3304 110.866 63.6436C110.384 63.9447 109.993 64.3602 109.691 64.8901C109.402 65.4201 109.186 66.0464 109.041 66.769C108.909 67.4797 108.842 68.2505 108.842 69.0815ZM130.793 59.4521V79H125.572V59.4521H130.793ZM125.247 54.3574C125.247 53.5986 125.512 52.9723 126.042 52.4785C126.571 51.9847 127.282 51.7378 128.173 51.7378C129.053 51.7378 129.757 51.9847 130.287 52.4785C130.829 52.9723 131.1 53.5986 131.1 54.3574C131.1 55.1162 130.829 55.7425 130.287 56.2363C129.757 56.7301 129.053 56.9771 128.173 56.9771C127.282 56.9771 126.571 56.7301 126.042 56.2363C125.512 55.7425 125.247 55.1162 125.247 54.3574ZM134.262 69.4248V69.0454C134.262 67.6121 134.466 66.2933 134.876 65.0889C135.285 63.8724 135.882 62.8185 136.665 61.9272C137.447 61.036 138.411 60.3434 139.555 59.8496C140.699 59.3438 142.012 59.0908 143.494 59.0908C144.975 59.0908 146.294 59.3438 147.45 59.8496C148.606 60.3434 149.576 61.036 150.359 61.9272C151.154 62.8185 151.756 63.8724 152.166 65.0889C152.575 66.2933 152.78 67.6121 152.78 69.0454V69.4248C152.78 70.846 152.575 72.1649 152.166 73.3813C151.756 74.5858 151.154 75.6396 150.359 76.543C149.576 77.4342 148.612 78.1268 147.468 78.6206C146.324 79.1144 145.011 79.3613 143.53 79.3613C142.048 79.3613 140.729 79.1144 139.573 78.6206C138.429 78.1268 137.459 77.4342 136.665 76.543C135.882 75.6396 135.285 74.5858 134.876 73.3813C134.466 72.1649 134.262 70.846 134.262 69.4248ZM139.465 69.0454V69.4248C139.465 70.2438 139.537 71.0086 139.682 71.7192C139.826 72.4299 140.055 73.0562 140.368 73.5981C140.693 74.1281 141.115 74.5436 141.633 74.8447C142.151 75.1458 142.783 75.2964 143.53 75.2964C144.252 75.2964 144.873 75.1458 145.391 74.8447C145.909 74.5436 146.324 74.1281 146.637 73.5981C146.95 73.0562 147.179 72.4299 147.324 71.7192C147.48 71.0086 147.559 70.2438 147.559 69.4248V69.0454C147.559 68.2505 147.48 67.5037 147.324 66.8052C147.179 66.0946 146.944 65.4683 146.619 64.9263C146.306 64.3722 145.89 63.9386 145.373 63.6255C144.855 63.3123 144.228 63.1558 143.494 63.1558C142.759 63.1558 142.133 63.3123 141.615 63.6255C141.109 63.9386 140.693 64.3722 140.368 64.9263C140.055 65.4683 139.826 66.0946 139.682 66.8052C139.537 67.5037 139.465 68.2505 139.465 69.0454Z" fill="url(#paint0_linear_3_16)"/>
<path d="M200.271 86.0833H201.25C202.289 86.0833 203.285 85.6707 204.02 84.9362C204.754 84.2017 205.167 83.2054 205.167 82.1667V56.7083L195.375 46.9167H177.75C176.711 46.9167 175.715 47.3293 174.981 48.0638C174.246 48.7984 173.833 49.7946 173.833 50.8333V56.7083" stroke="url(#paint1_linear_3_16)" stroke-width="2" stroke-linecap="round" stroke-linejoin="round"/>
<path d="M193.417 46.9167V54.75C193.417 55.7888 193.829 56.785 194.564 57.5195C195.298 58.254 196.295 58.6667 197.333 58.6667H205.167" stroke="url(#paint2_linear_3_16)" stroke-width="2" stroke-linecap="round" stroke-linejoin="round"/>
<path d="M169.917 80.2083C169.917 79.1696 170.329 78.1733 171.064 77.4388C171.798 76.7043 172.795 76.2917 173.833 76.2917C174.872 76.2917 175.868 76.7043 176.603 77.4388C177.337 78.1733 177.75 79.1696 177.75 80.2083V82.1667C177.75 83.2054 177.337 84.2016 176.603 84.9362C175.868 85.6707 174.872 86.0833 173.833 86.0833C172.795 86.0833 171.798 85.6707 171.064 84.9362C170.329 84.2016 169.917 83.2054 169.917 82.1667V74.3333C169.917 71.217 171.155 68.2284 173.358 66.0248C175.562 63.8213 178.55 62.5833 181.667 62.5833C184.783 62.5833 187.772 63.8213 189.975 66.0248C192.179 68.2284 193.417 71.217 193.417 74.3333V82.1667C193.417 83.2054 193.004 84.2016 192.269 84.9362C191.535 85.6707 190.539 86.0833 189.5 86.0833C188.461 86.0833 187.465 85.6707 186.73 84.9362C185.996 84.2016 185.583 83.2054 185.583 82.1667V80.2083C185.583 79.1696 185.996 78.1733 186.73 77.4388C187.465 76.7043 188.461 76.2917 189.5 76.2917C190.539 76.2917 191.535 76.7043 192.269 77.4388C193.004 78.1733 193.417 79.1696 193.417 80.2083" stroke="url(#paint3_linear_3_16)" stroke-width="2" stroke-linecap="round" stroke-linejoin="round"/>
</g>
<defs>
<filter id="filter0_d_3_16" x="0" y="0" width="257" height="164" filterUnits="userSpaceOnUse" color-interpolation-filters="sRGB">
<feFlood flood-opacity="0" result="BackgroundImageFix"/>
<feColorMatrix in="SourceAlpha" type="matrix" values="0 0 0 0 0 0 0 0 0 0 0 0 0 0 0 0 0 0 127 0" result="hardAlpha"/>
<feOffset dy="15"/>
<feGaussianBlur stdDeviation="15"/>
<feComposite in2="hardAlpha" operator="out"/>
<feColorMatrix type="matrix" values="0 0 0 0 1 0 0 0 0 0.4 0 0 0 0 0 0 0 0 0.25 0"/>
<feBlend mode="normal" in2="BackgroundImageFix" result="effect1_dropShadow_3_16"/>
<feBlend mode="normal" in="SourceGraphic" in2="effect1_dropShadow_3_16" result="shape"/>
</filter>
<linearGradient id="paint0_linear_3_16" x1="105.5" y1="93" x2="105.5" y2="40" gradientUnits="userSpaceOnUse">
<stop stop-color="#FF0000"/>
<stop offset="1" stop-color="#C7FF44"/>
</linearGradient>
<linearGradient id="paint1_linear_3_16" x1="189.5" y1="46.9167" x2="189.5" y2="86.0833" gradientUnits="userSpaceOnUse">
<stop stop-color="#FF0000"/>
<stop offset="1" stop-color="#CBFF5C"/>
</linearGradient>
<linearGradient id="paint2_linear_3_16" x1="199.292" y1="46.9167" x2="199.292" y2="58.6667" gradientUnits="userSpaceOnUse">
<stop stop-color="#FF0000"/>
<stop offset="1" stop-color="#CBFF5C"/>
</linearGradient>
<linearGradient id="paint3_linear_3_16" x1="181.667" y1="62.5833" x2="181.667" y2="86.0833" gradientUnits="userSpaceOnUse">
<stop stop-color="#FF0000"/>
<stop offset="1" stop-color="#CBFF5C"/>
</linearGradient>
</defs>
</svg>
