<svg width="428" height="154" viewBox="0 0 428 154" fill="none" xmlns="http://www.w3.org/2000/svg">
<g filter="url(#filter0_d_5_37)">
<rect x="25" y="15" width="378" height="104" rx="52" fill="#161616"/>
<rect x="26" y="16" width="376" height="102" rx="51" stroke="white" stroke-opacity="0.9" stroke-width="2"/>
<path d="M82.5669 57.1938L75.4126 79H69.6494L79.4233 52.6953H83.0908L82.5669 57.1938ZM88.5107 79L81.3384 57.1938L80.7603 52.6953H84.4639L94.292 79H88.5107ZM88.1855 69.208V73.4536H74.2925V69.208H88.1855ZM110.931 52.6953H116.333V70.0752C116.333 72.0986 115.899 73.8029 115.032 75.188C114.177 76.5731 112.991 77.6149 111.473 78.3135C109.968 79.012 108.233 79.3613 106.27 79.3613C104.307 79.3613 102.56 79.012 101.031 78.3135C99.5132 77.6149 98.3208 76.5731 97.4536 75.188C96.5985 73.8029 96.1709 72.0986 96.1709 70.0752V52.6953H101.591V70.0752C101.591 71.2555 101.778 72.2191 102.151 72.9658C102.524 73.7126 103.06 74.2606 103.759 74.6099C104.469 74.9591 105.306 75.1338 106.27 75.1338C107.258 75.1338 108.095 74.9591 108.781 74.6099C109.48 74.2606 110.01 73.7126 110.371 72.9658C110.744 72.2191 110.931 71.2555 110.931 70.0752V52.6953ZM128.871 79H123.144L123.18 74.7725H128.871C130.292 74.7725 131.491 74.4533 132.466 73.8149C133.442 73.1646 134.177 72.2191 134.67 70.9785C135.176 69.738 135.429 68.2384 135.429 66.48V65.1973C135.429 63.8483 135.285 62.6619 134.996 61.6382C134.719 60.6144 134.303 59.7533 133.749 59.0547C133.195 58.3561 132.514 57.8322 131.708 57.4829C130.901 57.1216 129.973 56.9409 128.925 56.9409H123.036V52.6953H128.925C130.684 52.6953 132.292 52.9964 133.749 53.5986C135.218 54.1888 136.489 55.0379 137.561 56.146C138.633 57.2541 139.458 58.5789 140.036 60.1206C140.626 61.6502 140.921 63.3545 140.921 65.2334V66.48C140.921 68.3468 140.626 70.0511 140.036 71.5928C139.458 73.1344 138.633 74.4593 137.561 75.5674C136.501 76.6634 135.23 77.5125 133.749 78.1147C132.28 78.7049 130.654 79 128.871 79ZM126.215 52.6953V79H120.795V52.6953H126.215ZM150.623 52.6953V79H145.221V52.6953H150.623ZM177.307 65.2334V66.48C177.307 68.4793 177.036 70.2739 176.494 71.8638C175.952 73.4536 175.187 74.8086 174.2 75.9287C173.212 77.0368 172.032 77.8859 170.659 78.4761C169.298 79.0662 167.786 79.3613 166.124 79.3613C164.474 79.3613 162.962 79.0662 161.589 78.4761C160.228 77.8859 159.048 77.0368 158.048 75.9287C157.049 74.8086 156.272 73.4536 155.718 71.8638C155.176 70.2739 154.905 68.4793 154.905 66.48V65.2334C154.905 63.222 155.176 61.4274 155.718 59.8496C156.26 58.2598 157.025 56.9048 158.012 55.7847C159.012 54.6646 160.192 53.8094 161.553 53.2192C162.926 52.6291 164.438 52.334 166.088 52.334C167.75 52.334 169.262 52.6291 170.623 53.2192C171.996 53.8094 173.176 54.6646 174.164 55.7847C175.163 56.9048 175.934 58.2598 176.476 59.8496C177.03 61.4274 177.307 63.222 177.307 65.2334ZM171.833 66.48V65.1973C171.833 63.8001 171.707 62.5716 171.454 61.5117C171.201 60.4518 170.827 59.5605 170.333 58.8379C169.84 58.1152 169.237 57.5732 168.527 57.2119C167.816 56.8385 167.003 56.6519 166.088 56.6519C165.173 56.6519 164.36 56.8385 163.649 57.2119C162.95 57.5732 162.354 58.1152 161.86 58.8379C161.379 59.5605 161.011 60.4518 160.758 61.5117C160.505 62.5716 160.379 63.8001 160.379 65.1973V66.48C160.379 67.8651 160.505 69.0936 160.758 70.1655C161.011 71.2254 161.385 72.1227 161.878 72.8574C162.372 73.5801 162.974 74.1281 163.685 74.5015C164.396 74.8748 165.209 75.0615 166.124 75.0615C167.039 75.0615 167.852 74.8748 168.563 74.5015C169.274 74.1281 169.87 73.5801 170.352 72.8574C170.833 72.1227 171.201 71.2254 171.454 70.1655C171.707 69.0936 171.833 67.8651 171.833 66.48ZM201.119 57.1938L193.964 79H188.201L197.975 52.6953H201.643L201.119 57.1938ZM207.062 79L199.89 57.1938L199.312 52.6953H203.016L212.844 79H207.062ZM206.737 69.208V73.4536H192.844V69.208H206.737ZM236.691 52.6953V79H231.271L220.703 61.3672V79H215.283V52.6953H220.703L231.29 70.3462V52.6953H236.691ZM252.427 57.1938L245.273 79H239.51L249.284 52.6953H252.951L252.427 57.1938ZM258.371 79L251.199 57.1938L250.621 52.6953H254.324L264.152 79H258.371ZM258.046 69.208V73.4536H244.153V69.208H258.046ZM283.501 74.7725V79H270.259V74.7725H283.501ZM272.011 52.6953V79H266.591V52.6953H272.011ZM285.38 52.6953L290.873 64.6914L296.365 52.6953H302.272L293.619 69.4248V79H288.126V69.4248L279.455 52.6953H285.38ZM318.081 72.1167C318.081 71.647 318.008 71.2254 317.864 70.8521C317.731 70.4666 317.478 70.1174 317.105 69.8042C316.732 69.479 316.208 69.1598 315.533 68.8467C314.859 68.5335 313.986 68.2083 312.914 67.8711C311.721 67.4857 310.589 67.0521 309.517 66.5703C308.457 66.0885 307.518 65.5285 306.699 64.8901C305.892 64.2397 305.253 63.487 304.784 62.6318C304.326 61.7767 304.097 60.783 304.097 59.6509C304.097 58.5549 304.338 57.5612 304.82 56.6699C305.302 55.7666 305.976 54.9958 306.843 54.3574C307.71 53.707 308.734 53.2072 309.915 52.8579C311.107 52.5086 312.414 52.334 313.835 52.334C315.774 52.334 317.466 52.6833 318.912 53.3818C320.357 54.0804 321.477 55.0379 322.272 56.2544C323.079 57.4709 323.482 58.862 323.482 60.4277H318.099C318.099 59.6569 317.936 58.9824 317.611 58.4043C317.298 57.8141 316.816 57.3504 316.166 57.0132C315.527 56.6759 314.72 56.5073 313.745 56.5073C312.805 56.5073 312.022 56.6519 311.396 56.9409C310.77 57.2179 310.3 57.5973 309.987 58.0791C309.674 58.5488 309.517 59.0788 309.517 59.6689C309.517 60.1146 309.625 60.5181 309.842 60.8794C310.071 61.2407 310.408 61.578 310.854 61.8911C311.3 62.2043 311.848 62.4993 312.498 62.7764C313.148 63.0534 313.901 63.3244 314.756 63.5894C316.19 64.0229 317.448 64.5107 318.532 65.0527C319.628 65.5947 320.544 66.203 321.278 66.8774C322.013 67.5519 322.567 68.3167 322.94 69.1719C323.314 70.027 323.5 70.9966 323.5 72.0806C323.5 73.2248 323.278 74.2485 322.832 75.1519C322.386 76.0552 321.742 76.82 320.899 77.4463C320.056 78.0726 319.05 78.5483 317.882 78.8735C316.714 79.1987 315.407 79.3613 313.961 79.3613C312.661 79.3613 311.378 79.1927 310.113 78.8555C308.849 78.5062 307.698 77.9823 306.663 77.2837C305.639 76.5851 304.82 75.6938 304.206 74.6099C303.591 73.5259 303.284 72.2432 303.284 70.7617H308.722C308.722 71.5807 308.849 72.2733 309.102 72.8394C309.354 73.4054 309.71 73.8631 310.167 74.2124C310.637 74.5617 311.191 74.8146 311.83 74.9712C312.48 75.1278 313.191 75.2061 313.961 75.2061C314.901 75.2061 315.672 75.0736 316.274 74.8086C316.888 74.5436 317.34 74.1763 317.629 73.7065C317.93 73.2368 318.081 72.7069 318.081 72.1167ZM332.949 52.6953V79H327.547V52.6953H332.949ZM351.72 72.1167C351.72 71.647 351.648 71.2254 351.503 70.8521C351.371 70.4666 351.118 70.1174 350.745 69.8042C350.371 69.479 349.847 69.1598 349.173 68.8467C348.498 68.5335 347.625 68.2083 346.553 67.8711C345.361 67.4857 344.229 67.0521 343.157 66.5703C342.097 66.0885 341.157 65.5285 340.338 64.8901C339.531 64.2397 338.893 63.487 338.423 62.6318C337.966 61.7767 337.737 60.783 337.737 59.6509C337.737 58.5549 337.978 57.5612 338.459 56.6699C338.941 55.7666 339.616 54.9958 340.483 54.3574C341.35 53.707 342.374 53.2072 343.554 52.8579C344.747 52.5086 346.053 52.334 347.475 52.334C349.414 52.334 351.106 52.6833 352.551 53.3818C353.997 54.0804 355.117 55.0379 355.912 56.2544C356.719 57.4709 357.122 58.862 357.122 60.4277H351.738C351.738 59.6569 351.576 58.9824 351.25 58.4043C350.937 57.8141 350.456 57.3504 349.805 57.0132C349.167 56.6759 348.36 56.5073 347.384 56.5073C346.445 56.5073 345.662 56.6519 345.036 56.9409C344.409 57.2179 343.94 57.5973 343.626 58.0791C343.313 58.5488 343.157 59.0788 343.157 59.6689C343.157 60.1146 343.265 60.5181 343.482 60.8794C343.711 61.2407 344.048 61.578 344.494 61.8911C344.939 62.2043 345.487 62.4993 346.138 62.7764C346.788 63.0534 347.541 63.3244 348.396 63.5894C349.829 64.0229 351.088 64.5107 352.172 65.0527C353.268 65.5947 354.183 66.203 354.918 66.8774C355.653 67.5519 356.207 68.3167 356.58 69.1719C356.953 70.027 357.14 70.9966 357.14 72.0806C357.14 73.2248 356.917 74.2485 356.472 75.1519C356.026 76.0552 355.382 76.82 354.539 77.4463C353.695 78.0726 352.69 78.5483 351.521 78.8735C350.353 79.1987 349.046 79.3613 347.601 79.3613C346.3 79.3613 345.018 79.1927 343.753 78.8555C342.488 78.5062 341.338 77.9823 340.302 77.2837C339.278 76.5851 338.459 75.6938 337.845 74.6099C337.231 73.5259 336.924 72.2432 336.924 70.7617H342.362C342.362 71.5807 342.488 72.2733 342.741 72.8394C342.994 73.4054 343.349 73.8631 343.807 74.2124C344.277 74.5617 344.831 74.8146 345.469 74.9712C346.12 75.1278 346.83 75.2061 347.601 75.2061C348.541 75.2061 349.311 75.0736 349.914 74.8086C350.528 74.5436 350.979 74.1763 351.269 73.7065C351.57 73.2368 351.72 72.7069 351.72 72.1167Z" fill="url(#paint0_linear_5_37)"/>
</g>
<defs>
<filter id="filter0_d_5_37" x="0" y="0" width="428" height="154" filterUnits="userSpaceOnUse" color-interpolation-filters="sRGB">
<feFlood flood-opacity="0" result="BackgroundImageFix"/>
<feColorMatrix in="SourceAlpha" type="matrix" values="0 0 0 0 0 0 0 0 0 0 0 0 0 0 0 0 0 0 127 0" result="hardAlpha"/>
<feOffset dy="10"/>
<feGaussianBlur stdDeviation="12.5"/>
<feComposite in2="hardAlpha" operator="out"/>
<feColorMatrix type="matrix" values="0 0 0 0 1 0 0 0 0 0.247497 0 0 0 0 0.648832 0 0 0 0.25 0"/>
<feBlend mode="normal" in2="BackgroundImageFix" result="effect1_dropShadow_5_37"/>
<feBlend mode="normal" in="SourceGraphic" in2="effect1_dropShadow_5_37" result="shape"/>
</filter>
<linearGradient id="paint0_linear_5_37" x1="25" y1="66.5" x2="403" y2="66.5" gradientUnits="userSpaceOnUse">
<stop stop-color="#9131FF"/>
<stop offset="0.480769" stop-color="#FF2BB1"/>
<stop offset="1" stop-color="#FFEE35"/>
</linearGradient>
</defs>
</svg>
