<svg width="9070" height="9070" viewBox="0 0 9070 9070" fill="none" xmlns="http://www.w3.org/2000/svg">
<path fill-rule="evenodd" clip-rule="evenodd" d="M5532.06 1658.94C5989.5 1593.6 6398.75 1948.54 6398.75 2410.62V2790.68C6727.18 2964.29 6950.97 3309.35 6950.97 3706.68V6467.78C6950.97 7039.63 6487.41 7503.2 5915.56 7503.2H3154.44C2582.6 7503.2 2119.03 7039.63 2119.03 6467.78V2602.23C2119.03 2599.67 2119.07 2597.11 2119.17 2594.57C2119.07 2590.59 2119.03 2586.61 2119.03 2582.61C2119.03 2332.38 2303.02 2120.23 2550.74 2084.85L5532.06 1658.94ZM2533.19 3085.43V6467.78C2533.19 6810.9 2811.34 7089.03 3154.44 7089.03H5915.56C6258.65 7089.03 6536.81 6810.9 6536.81 6467.78V3706.68C6536.81 3363.57 6258.65 3085.43 5915.56 3085.43H2533.19ZM2621.85 2671.26H5984.58V2410.62C5984.58 2200.58 5798.57 2039.24 5590.63 2068.95L2609.31 2494.85C2565.63 2501.09 2533.19 2538.49 2533.19 2582.61C2533.19 2631.57 2572.89 2671.26 2621.85 2671.26ZM3223.47 4535C3223.47 4420.64 3316.19 4327.92 3430.56 4327.92H5639.44C5753.81 4327.92 5846.53 4420.64 5846.53 4535C5846.53 4649.39 5753.81 4742.08 5639.44 4742.08H3430.56C3316.19 4742.08 3223.47 4649.39 3223.47 4535ZM3223.47 5501.39C3223.47 5387.02 3316.19 5294.31 3430.56 5294.31H4949.17C5063.53 5294.31 5156.25 5387.02 5156.25 5501.39C5156.25 5615.78 5063.53 5708.47 4949.17 5708.47H3430.56C3316.19 5708.47 3223.47 5615.78 3223.47 5501.39Z" fill="black" stroke="black" stroke-width="0.00666667"/>
<g clip-path="url(#clip0_38_73)">
<path d="M6190.07 1046L5982.32 1434.71C5982.44 1434.78 5509.34 3333.46 5509.34 3333.46L5846.39 3513.58C5846.39 3513.58 6004.3 3218.11 6229.94 2795.9C6561.73 2175.08 6527.28 1477.96 6190.07 1046Z" fill="#A3DDE9"/>
<path d="M4058.85 5445.41L2871.28 8002.33C3042.61 8093.9 3255.74 8029.13 3347.3 7857.8L4388.14 5910.27L4058.85 5445.41Z" fill="#419EBE"/>
<path d="M5269.83 3781.62L5468.91 3888.02L5108.65 4562.09L4539.19 4546.62L5244.21 3767.93L5269.83 3781.62Z" fill="#419EBE"/>
<path d="M4283.53 5565.5L3122.61 7737.73C3031.05 7909.06 2918.46 8027.56 2871.28 8002.33C2699.95 7910.77 2635.25 7697.52 2726.82 7526.18L3767.65 5578.66L4283.53 5565.5Z" fill="#62B3CD"/>
<path d="M5244.21 3767.93L4763.88 4666.7L4488.15 4230.49L4848.42 3556.4L5244.21 3767.93Z" fill="#62B3CD"/>
<path d="M5108.65 4562.09L4928.53 4899.13L4531.44 4831.36L4883.97 4442L5108.65 4562.09Z" fill="#47798C"/>
<path d="M4883.97 4442.01L4643.8 4891.4L4308.04 4567.53L4488.15 4230.49L4883.97 4442.01Z" fill="#419EBE"/>
<path d="M5409.93 3856.5L5244.21 3767.93L4848.42 3556.41L5982.32 1434.72C6134.82 1760.16 6125.38 2180.79 5892.9 2615.79C5660.42 3050.77 5409.93 3856.5 5409.93 3856.5Z" fill="#82C8DB"/>
<path d="M4928.53 4899.13L4748.41 5236.19L4351.31 5168.41L4703.84 4779.05L4928.53 4899.13Z" fill="#146A8A"/>
<path d="M4748.41 5236.19L4568.27 5573.22L4171.19 5505.45L4523.7 5116.11L4748.41 5236.19Z" fill="#47798C"/>
<path d="M4703.84 4779.05L4463.66 5228.45L4127.91 4904.57L4308.04 4567.53L4703.84 4779.05Z" fill="#47798C"/>
<path d="M4523.7 5116.11L4283.53 5565.5L3947.78 5241.6L4127.91 4904.57L4523.7 5116.11Z" fill="#419EBE"/>
<path d="M4568.27 5573.22L4388.14 5910.27L4163.46 5790.18L4141.16 5561.62L4343.58 5453.15L4568.27 5573.22Z" fill="#146A8A"/>
<path d="M4163.47 5790.19L4343.6 5453.15L3947.81 5241.63L3767.68 5578.66L4163.47 5790.19Z" fill="#47798C"/>
<path d="M6265.38 987.222C6245.49 961.742 6214.06 948.07 6181.86 950.828C6149.73 953.658 6121.05 972.466 6105.8 1000.98L4764.2 3511.29L2642.56 7481.16C2526.33 7698.69 2608.73 7970.24 2826.24 8086.5C2931.63 8142.82 3052.62 8154.73 3166.95 8120.04C3166.94 8120.05 3166.96 8120.04 3166.95 8120.04C3281.28 8085.36 3375.27 8008.23 3431.6 7902.85L5553.24 3932.99C5576.2 3890.01 5562.92 3837.44 5524.13 3810.03L5672.71 3531.99L5802.93 3598.56C5849.3 3622.28 5906.12 3604.49 5930.69 3558.53L6314.2 2840.92C6654.08 2204.98 6634.46 1460.03 6265.38 987.222ZM4889.36 4769.78L4437.39 4528.22L4527.44 4359.72L4979.42 4601.28L4889.36 4769.78ZM4709.24 5106.83L4257.25 4865.29L4347.31 4696.77L4799.29 4938.34L4709.24 5106.83ZM4529.12 5443.86L4077.13 5202.31L4167.18 5033.81L4619.17 5275.35L4529.12 5443.86ZM4348.98 5780.91L3897 5539.35L3987.05 5370.85L4439.03 5612.41L4348.98 5780.91ZM3263.07 7812.79C3230.81 7873.17 3176.98 7917.35 3111.48 7937.22C3045.99 7957.1 2976.66 7950.27 2916.3 7917.99C2791.69 7851.39 2744.48 7695.85 2811.08 7571.25L3806.93 5707.89L4258.9 5949.45L3263.07 7812.79ZM5069.5 4432.73L4617.51 4191.18L4887.71 3685.61L5339.68 3927.17L5069.5 4432.73ZM6145.67 2750.87L5806.38 3385.73L5676.17 3319.16C5629.8 3295.43 5572.98 3313.23 5548.41 3359.19L5355.98 3719.25L4977.76 3517.12L5961.04 1677.27C6016.1 1952.17 5962.8 2282.3 5808.66 2570.74L5605.26 2951.3C5580.38 2997.84 5597.94 3055.72 5644.48 3080.59C5667.75 3093.03 5693.85 3094.85 5717.25 3087.75C5740.64 3080.65 5761.34 3064.63 5773.78 3041.37L5977.18 2660.78C6193.13 2256.7 6234.16 1793.76 6088.41 1438.94L6199.52 1231.04C6437.53 1645.56 6421.15 2235.43 6145.67 2750.87Z" fill="black"/>
</g>
<defs>
<clipPath id="clip0_38_73">
<rect width="5987.1" height="5987.1" fill="white" transform="translate(801 2581.3) rotate(-16.8783)"/>
</clipPath>
</defs>
</svg>
