<svg width="255" height="162" viewBox="0 0 255 162" fill="none" xmlns="http://www.w3.org/2000/svg">
<g filter="url(#filter0_d_3_31)">
<rect x="29" y="19" width="197" height="104" rx="52" fill="#161616"/>
<rect x="30" y="20" width="195" height="102" rx="51" stroke="white" stroke-opacity="0.9" stroke-width="2"/>
<path d="M68.4937 77.5078L74.6904 56.6953H80.7246L71.5649 83H67.5903L68.4937 77.5078ZM62.7847 56.6953L68.9634 77.5078L69.9028 83H65.8921L56.7866 56.6953H62.7847ZM88.3486 63.4521V83H83.1274V63.4521H88.3486ZM82.8022 58.3574C82.8022 57.5986 83.0672 56.9723 83.5972 56.4785C84.1271 55.9847 84.8377 55.7378 85.729 55.7378C86.6082 55.7378 87.3128 55.9847 87.8428 56.4785C88.3848 56.9723 88.6558 57.5986 88.6558 58.3574C88.6558 59.1162 88.3848 59.7425 87.8428 60.2363C87.3128 60.7301 86.6082 60.9771 85.729 60.9771C84.8377 60.9771 84.1271 60.7301 83.5972 60.2363C83.0672 59.7425 82.8022 59.1162 82.8022 58.3574ZM104.193 78.7363V55.25H109.432V83H104.717L104.193 78.7363ZM91.8354 73.4609V73.0815C91.8354 71.5881 92.0041 70.2331 92.3413 69.0166C92.6785 67.7881 93.1724 66.7342 93.8228 65.855C94.4731 64.9757 95.2741 64.2952 96.2256 63.8135C97.1771 63.3317 98.2611 63.0908 99.4775 63.0908C100.622 63.0908 101.621 63.3317 102.477 63.8135C103.344 64.2952 104.078 64.9818 104.681 65.873C105.295 66.7523 105.789 67.7941 106.162 68.9985C106.535 70.1909 106.806 71.4977 106.975 72.9189V73.75C106.806 75.111 106.535 76.3757 106.162 77.5439C105.789 78.7122 105.295 79.736 104.681 80.6152C104.078 81.4824 103.344 82.1569 102.477 82.6387C101.609 83.1204 100.598 83.3613 99.4414 83.3613C98.2249 83.3613 97.141 83.1144 96.1895 82.6206C95.25 82.1268 94.4551 81.4342 93.8047 80.543C93.1663 79.6517 92.6785 78.6038 92.3413 77.3994C92.0041 76.195 91.8354 74.8822 91.8354 73.4609ZM97.0386 73.0815V73.4609C97.0386 74.2679 97.0988 75.0207 97.2192 75.7192C97.3517 76.4178 97.5625 77.0381 97.8516 77.5801C98.1527 78.11 98.5381 78.5256 99.0078 78.8267C99.4896 79.1157 100.074 79.2603 100.76 79.2603C101.652 79.2603 102.386 79.0615 102.964 78.6641C103.542 78.2546 103.982 77.6945 104.283 76.9839C104.596 76.2733 104.777 75.4543 104.825 74.5269V72.1602C104.789 71.4014 104.681 70.7209 104.5 70.1187C104.331 69.5044 104.078 68.9805 103.741 68.5469C103.416 68.1133 103.007 67.776 102.513 67.5352C102.031 67.2943 101.459 67.1738 100.796 67.1738C100.122 67.1738 99.5438 67.3304 99.062 67.6436C98.5802 67.9447 98.1888 68.3602 97.8877 68.8901C97.5986 69.4201 97.3818 70.0464 97.2373 70.769C97.1048 71.4797 97.0386 72.2505 97.0386 73.0815ZM122.494 83.3613C120.977 83.3613 119.616 83.1204 118.411 82.6387C117.207 82.1449 116.183 81.4644 115.34 80.5972C114.509 79.73 113.87 78.7243 113.425 77.5801C112.979 76.4238 112.756 75.1953 112.756 73.8945V73.1719C112.756 71.6904 112.967 70.3354 113.389 69.1069C113.81 67.8784 114.412 66.8125 115.195 65.9092C115.99 65.0059 116.954 64.3133 118.086 63.8315C119.218 63.3377 120.495 63.0908 121.916 63.0908C123.301 63.0908 124.53 63.3197 125.602 63.7773C126.674 64.235 127.571 64.8854 128.293 65.7285C129.028 66.5716 129.582 67.5833 129.956 68.7637C130.329 69.932 130.516 71.2327 130.516 72.666V74.834H114.979V71.3652H125.403V70.9678C125.403 70.2451 125.27 69.6007 125.005 69.0347C124.752 68.4565 124.367 67.9989 123.849 67.6616C123.331 67.3244 122.669 67.1558 121.862 67.1558C121.175 67.1558 120.585 67.3063 120.091 67.6074C119.597 67.9085 119.194 68.3301 118.881 68.8721C118.58 69.4141 118.351 70.0524 118.194 70.7871C118.05 71.5098 117.978 72.3047 117.978 73.1719V73.8945C117.978 74.6774 118.086 75.4001 118.303 76.0625C118.532 76.7249 118.851 77.297 119.26 77.7788C119.682 78.2606 120.188 78.634 120.778 78.8989C121.38 79.1639 122.061 79.2964 122.819 79.2964C123.759 79.2964 124.632 79.1157 125.439 78.7544C126.258 78.381 126.963 77.821 127.553 77.0742L130.082 79.8203C129.673 80.4105 129.112 80.9766 128.402 81.5186C127.703 82.0605 126.86 82.5062 125.873 82.8555C124.885 83.1927 123.759 83.3613 122.494 83.3613ZM132.647 73.4248V73.0454C132.647 71.6121 132.852 70.2933 133.262 69.0889C133.671 67.8724 134.267 66.8185 135.05 65.9272C135.833 65.036 136.797 64.3434 137.941 63.8496C139.085 63.3438 140.398 63.0908 141.879 63.0908C143.361 63.0908 144.68 63.3438 145.836 63.8496C146.992 64.3434 147.962 65.036 148.745 65.9272C149.54 66.8185 150.142 67.8724 150.551 69.0889C150.961 70.2933 151.166 71.6121 151.166 73.0454V73.4248C151.166 74.846 150.961 76.1649 150.551 77.3813C150.142 78.5858 149.54 79.6396 148.745 80.543C147.962 81.4342 146.998 82.1268 145.854 82.6206C144.71 83.1144 143.397 83.3613 141.916 83.3613C140.434 83.3613 139.115 83.1144 137.959 82.6206C136.815 82.1268 135.845 81.4342 135.05 80.543C134.267 79.6396 133.671 78.5858 133.262 77.3813C132.852 76.1649 132.647 74.846 132.647 73.4248ZM137.851 73.0454V73.4248C137.851 74.2438 137.923 75.0086 138.067 75.7192C138.212 76.4299 138.441 77.0562 138.754 77.5981C139.079 78.1281 139.501 78.5436 140.019 78.8447C140.536 79.1458 141.169 79.2964 141.916 79.2964C142.638 79.2964 143.258 79.1458 143.776 78.8447C144.294 78.5436 144.71 78.1281 145.023 77.5981C145.336 77.0562 145.565 76.4299 145.709 75.7192C145.866 75.0086 145.944 74.2438 145.944 73.4248V73.0454C145.944 72.2505 145.866 71.5037 145.709 70.8052C145.565 70.0946 145.33 69.4683 145.005 68.9263C144.692 68.3722 144.276 67.9386 143.758 67.6255C143.24 67.3123 142.614 67.1558 141.879 67.1558C141.145 67.1558 140.518 67.3123 140 67.6255C139.495 67.9386 139.079 68.3722 138.754 68.9263C138.441 69.4683 138.212 70.0946 138.067 70.8052C137.923 71.5037 137.851 72.2505 137.851 73.0454Z" fill="url(#paint0_linear_3_31)"/>
<path d="M172.667 88.1667H199.5C200.517 88.1667 201.492 87.7628 202.211 87.0439C202.929 86.325 203.333 85.35 203.333 84.3333V59.4167L193.75 49.8333H176.5C175.483 49.8333 174.508 50.2372 173.789 50.9561C173.071 51.675 172.667 52.65 172.667 53.6667V61.3333" stroke="url(#paint1_linear_3_31)" stroke-width="2" stroke-linecap="round" stroke-linejoin="round"/>
<path d="M191.833 49.8333V57.5C191.833 58.5167 192.237 59.4917 192.956 60.2106C193.675 60.9295 194.65 61.3333 195.667 61.3333H203.333" stroke="url(#paint2_linear_3_31)" stroke-width="2" stroke-linecap="round" stroke-linejoin="round"/>
<path d="M182.25 69H170.75C169.691 69 168.833 69.8581 168.833 70.9167V78.5833C168.833 79.6419 169.691 80.5 170.75 80.5H182.25C183.309 80.5 184.167 79.6419 184.167 78.5833V70.9167C184.167 69.8581 183.309 69 182.25 69Z" stroke="url(#paint3_linear_3_31)" stroke-width="2" stroke-linecap="round" stroke-linejoin="round"/>
<path d="M184.167 75.7083L191.833 80.5V69L184.167 73.7917" stroke="url(#paint4_linear_3_31)" stroke-width="2" stroke-linecap="round" stroke-linejoin="round"/>
</g>
<defs>
<filter id="filter0_d_3_31" x="0" y="0" width="255" height="162" filterUnits="userSpaceOnUse" color-interpolation-filters="sRGB">
<feFlood flood-opacity="0" result="BackgroundImageFix"/>
<feColorMatrix in="SourceAlpha" type="matrix" values="0 0 0 0 0 0 0 0 0 0 0 0 0 0 0 0 0 0 127 0" result="hardAlpha"/>
<feMorphology radius="4" operator="dilate" in="SourceAlpha" result="effect1_dropShadow_3_31"/>
<feOffset dy="10"/>
<feGaussianBlur stdDeviation="12.5"/>
<feComposite in2="hardAlpha" operator="out"/>
<feColorMatrix type="matrix" values="0 0 0 0 0.467273 0 0 0 0 0.899659 0 0 0 0 0.618608 0 0 0 0.25 0"/>
<feBlend mode="normal" in2="BackgroundImageFix" result="effect1_dropShadow_3_31"/>
<feBlend mode="normal" in="SourceGraphic" in2="effect1_dropShadow_3_31" result="shape"/>
</filter>
<linearGradient id="paint0_linear_3_31" x1="139" y1="60" x2="66" y2="97" gradientUnits="userSpaceOnUse">
<stop stop-color="#5AFF70"/>
<stop offset="0.485577" stop-color="#61AFDF"/>
<stop offset="1" stop-color="#F93FFF"/>
</linearGradient>
<linearGradient id="paint1_linear_3_31" x1="188" y1="49.8333" x2="188" y2="88.1667" gradientUnits="userSpaceOnUse">
<stop stop-color="#E53EFF"/>
<stop offset="0.697115" stop-color="#45D2F1"/>
<stop offset="1" stop-color="#A0FF8F"/>
</linearGradient>
<linearGradient id="paint2_linear_3_31" x1="197.583" y1="49.8333" x2="197.583" y2="61.3333" gradientUnits="userSpaceOnUse">
<stop stop-color="#E53EFF"/>
<stop offset="0.697115" stop-color="#45D2F1"/>
<stop offset="1" stop-color="#A0FF8F"/>
</linearGradient>
<linearGradient id="paint3_linear_3_31" x1="176.5" y1="69" x2="176.5" y2="80.5" gradientUnits="userSpaceOnUse">
<stop stop-color="#E53EFF"/>
<stop offset="0.697115" stop-color="#45D2F1"/>
<stop offset="1" stop-color="#A0FF8F"/>
</linearGradient>
<linearGradient id="paint4_linear_3_31" x1="188" y1="69" x2="188" y2="80.5" gradientUnits="userSpaceOnUse">
<stop stop-color="#E53EFF"/>
<stop offset="0.697115" stop-color="#45D2F1"/>
<stop offset="1" stop-color="#A0FF8F"/>
</linearGradient>
</defs>
</svg>
