<svg width="438" height="164" viewBox="0 0 438 164" fill="none" xmlns="http://www.w3.org/2000/svg">
<g filter="url(#filter0_d_1_11)">
<rect x="30" y="15" width="378" height="104" rx="52" fill="#161616"/>
<rect x="31" y="16" width="376" height="102" rx="51" stroke="white" stroke-opacity="0.9" stroke-width="2"/>
<path d="M77.6846 74.5078L83.8813 53.6953H89.9155L80.7559 80H76.7812L77.6846 74.5078ZM71.9756 53.6953L78.1543 74.5078L79.0938 80H75.083L65.9775 53.6953H71.9756ZM98.1357 53.6953V80H92.7339V53.6953H98.1357ZM116.907 73.1167C116.907 72.647 116.834 72.2254 116.69 71.8521C116.557 71.4666 116.305 71.1174 115.931 70.8042C115.558 70.479 115.034 70.1598 114.359 69.8467C113.685 69.5335 112.812 69.2083 111.74 68.8711C110.547 68.4857 109.415 68.0521 108.343 67.5703C107.283 67.0885 106.344 66.5285 105.525 65.8901C104.718 65.2397 104.08 64.487 103.61 63.6318C103.152 62.7767 102.923 61.783 102.923 60.6509C102.923 59.5549 103.164 58.5612 103.646 57.6699C104.128 56.7666 104.802 55.9958 105.669 55.3574C106.537 54.707 107.56 54.2072 108.741 53.8579C109.933 53.5086 111.24 53.334 112.661 53.334C114.6 53.334 116.292 53.6833 117.738 54.3818C119.183 55.0804 120.303 56.0379 121.098 57.2544C121.905 58.4709 122.309 59.862 122.309 61.4277H116.925C116.925 60.6569 116.762 59.9824 116.437 59.4043C116.124 58.8141 115.642 58.3504 114.992 58.0132C114.353 57.6759 113.546 57.5073 112.571 57.5073C111.631 57.5073 110.848 57.6519 110.222 57.9409C109.596 58.2179 109.126 58.5973 108.813 59.0791C108.5 59.5488 108.343 60.0788 108.343 60.6689C108.343 61.1146 108.452 61.5181 108.668 61.8794C108.897 62.2407 109.235 62.578 109.68 62.8911C110.126 63.2043 110.674 63.4993 111.324 63.7764C111.975 64.0534 112.727 64.3244 113.583 64.5894C115.016 65.0229 116.274 65.5107 117.358 66.0527C118.454 66.5947 119.37 67.203 120.104 67.8774C120.839 68.5519 121.393 69.3167 121.767 70.1719C122.14 71.027 122.327 71.9966 122.327 73.0806C122.327 74.2248 122.104 75.2485 121.658 76.1519C121.213 77.0552 120.568 77.82 119.725 78.4463C118.882 79.0726 117.876 79.5483 116.708 79.8735C115.54 80.1987 114.233 80.3613 112.788 80.3613C111.487 80.3613 110.204 80.1927 108.939 79.8555C107.675 79.5062 106.525 78.9823 105.489 78.2837C104.465 77.5851 103.646 76.6938 103.032 75.6099C102.417 74.5259 102.11 73.2432 102.11 71.7617H107.548C107.548 72.5807 107.675 73.2733 107.928 73.8394C108.181 74.4054 108.536 74.8631 108.994 75.2124C109.463 75.5617 110.017 75.8146 110.656 75.9712C111.306 76.1278 112.017 76.2061 112.788 76.2061C113.727 76.2061 114.498 76.0736 115.1 75.8086C115.714 75.5436 116.166 75.1763 116.455 74.7065C116.756 74.2368 116.907 73.7069 116.907 73.1167ZM140.538 53.6953H145.939V71.0752C145.939 73.0986 145.506 74.8029 144.639 76.188C143.784 77.5731 142.597 78.6149 141.08 79.3135C139.574 80.012 137.84 80.3613 135.876 80.3613C133.913 80.3613 132.167 80.012 130.637 79.3135C129.12 78.6149 127.927 77.5731 127.06 76.188C126.205 74.8029 125.777 73.0986 125.777 71.0752V53.6953H131.197V71.0752C131.197 72.2555 131.384 73.2191 131.757 73.9658C132.131 74.7126 132.667 75.2606 133.365 75.6099C134.076 75.9591 134.913 76.1338 135.876 76.1338C136.864 76.1338 137.701 75.9591 138.388 75.6099C139.086 75.2606 139.616 74.7126 139.978 73.9658C140.351 73.2191 140.538 72.2555 140.538 71.0752V53.6953ZM160.7 58.1938L153.545 80H147.782L157.556 53.6953H161.224L160.7 58.1938ZM166.644 80L159.471 58.1938L158.893 53.6953H162.597L172.425 80H166.644ZM166.318 70.208V74.4536H152.425V70.208H166.318ZM191.774 75.7725V80H178.531V75.7725H191.774ZM180.284 53.6953V80H174.864V53.6953H180.284ZM214.791 58.1938L207.636 80H201.873L211.647 53.6953H215.314L214.791 58.1938ZM220.734 80L213.562 58.1938L212.984 53.6953H216.688L226.516 80H220.734ZM220.409 70.208V74.4536H206.516V70.208H220.409ZM250.363 53.6953V80H244.943L234.375 62.3672V80H228.955V53.6953H234.375L244.961 71.3462V53.6953H250.363ZM266.099 58.1938L258.945 80H253.182L262.956 53.6953H266.623L266.099 58.1938ZM272.043 80L264.871 58.1938L264.292 53.6953H267.996L277.824 80H272.043ZM271.718 70.208V74.4536H257.825V70.208H271.718ZM297.173 75.7725V80H283.931V75.7725H297.173ZM285.683 53.6953V80H280.263V53.6953H285.683ZM299.052 53.6953L304.544 65.6914L310.037 53.6953H315.944L307.291 70.4248V80H301.798V70.4248L293.126 53.6953H299.052ZM331.752 73.1167C331.752 72.647 331.68 72.2254 331.536 71.8521C331.403 71.4666 331.15 71.1174 330.777 70.8042C330.403 70.479 329.88 70.1598 329.205 69.8467C328.531 69.5335 327.657 69.2083 326.585 68.8711C325.393 68.4857 324.261 68.0521 323.189 67.5703C322.129 67.0885 321.19 66.5285 320.371 65.8901C319.564 65.2397 318.925 64.487 318.456 63.6318C317.998 62.7767 317.769 61.783 317.769 60.6509C317.769 59.5549 318.01 58.5612 318.492 57.6699C318.973 56.7666 319.648 55.9958 320.515 55.3574C321.382 54.707 322.406 54.2072 323.586 53.8579C324.779 53.5086 326.086 53.334 327.507 53.334C329.446 53.334 331.138 53.6833 332.583 54.3818C334.029 55.0804 335.149 56.0379 335.944 57.2544C336.751 58.4709 337.154 59.862 337.154 61.4277H331.771C331.771 60.6569 331.608 59.9824 331.283 59.4043C330.97 58.8141 330.488 58.3504 329.837 58.0132C329.199 57.6759 328.392 57.5073 327.417 57.5073C326.477 57.5073 325.694 57.6519 325.068 57.9409C324.442 58.2179 323.972 58.5973 323.659 59.0791C323.346 59.5488 323.189 60.0788 323.189 60.6689C323.189 61.1146 323.297 61.5181 323.514 61.8794C323.743 62.2407 324.08 62.578 324.526 62.8911C324.972 63.2043 325.52 63.4993 326.17 63.7764C326.82 64.0534 327.573 64.3244 328.428 64.5894C329.861 65.0229 331.12 65.5107 332.204 66.0527C333.3 66.5947 334.215 67.203 334.95 67.8774C335.685 68.5519 336.239 69.3167 336.612 70.1719C336.986 71.027 337.172 71.9966 337.172 73.0806C337.172 74.2248 336.95 75.2485 336.504 76.1519C336.058 77.0552 335.414 77.82 334.571 78.4463C333.728 79.0726 332.722 79.5483 331.554 79.8735C330.385 80.1987 329.079 80.3613 327.633 80.3613C326.333 80.3613 325.05 80.1927 323.785 79.8555C322.521 79.5062 321.37 78.9823 320.334 78.2837C319.311 77.5851 318.492 76.6938 317.877 75.6099C317.263 74.5259 316.956 73.2432 316.956 71.7617H322.394C322.394 72.5807 322.521 73.2733 322.773 73.8394C323.026 74.4054 323.382 74.8631 323.839 75.2124C324.309 75.5617 324.863 75.8146 325.501 75.9712C326.152 76.1278 326.862 76.2061 327.633 76.2061C328.573 76.2061 329.344 76.0736 329.946 75.8086C330.56 75.5436 331.012 75.1763 331.301 74.7065C331.602 74.2368 331.752 73.7069 331.752 73.1167ZM346.621 53.6953V80H341.219V53.6953H346.621ZM365.392 73.1167C365.392 72.647 365.32 72.2254 365.175 71.8521C365.043 71.4666 364.79 71.1174 364.417 70.8042C364.043 70.479 363.519 70.1598 362.845 69.8467C362.17 69.5335 361.297 69.2083 360.225 68.8711C359.033 68.4857 357.901 68.0521 356.829 67.5703C355.769 67.0885 354.829 66.5285 354.01 65.8901C353.203 65.2397 352.565 64.487 352.095 63.6318C351.638 62.7767 351.409 61.783 351.409 60.6509C351.409 59.5549 351.65 58.5612 352.131 57.6699C352.613 56.7666 353.288 55.9958 354.155 55.3574C355.022 54.707 356.046 54.2072 357.226 53.8579C358.418 53.5086 359.725 53.334 361.146 53.334C363.086 53.334 364.778 53.6833 366.223 54.3818C367.668 55.0804 368.789 56.0379 369.583 57.2544C370.39 58.4709 370.794 59.862 370.794 61.4277H365.41C365.41 60.6569 365.248 59.9824 364.922 59.4043C364.609 58.8141 364.127 58.3504 363.477 58.0132C362.839 57.6759 362.032 57.5073 361.056 57.5073C360.117 57.5073 359.334 57.6519 358.708 57.9409C358.081 58.2179 357.611 58.5973 357.298 59.0791C356.985 59.5488 356.829 60.0788 356.829 60.6689C356.829 61.1146 356.937 61.5181 357.154 61.8794C357.383 62.2407 357.72 62.578 358.166 62.8911C358.611 63.2043 359.159 63.4993 359.81 63.7764C360.46 64.0534 361.213 64.3244 362.068 64.5894C363.501 65.0229 364.76 65.5107 365.844 66.0527C366.94 66.5947 367.855 67.203 368.59 67.8774C369.325 68.5519 369.879 69.3167 370.252 70.1719C370.625 71.027 370.812 71.9966 370.812 73.0806C370.812 74.2248 370.589 75.2485 370.144 76.1519C369.698 77.0552 369.054 77.82 368.21 78.4463C367.367 79.0726 366.362 79.5483 365.193 79.8735C364.025 80.1987 362.718 80.3613 361.273 80.3613C359.972 80.3613 358.689 80.1927 357.425 79.8555C356.16 79.5062 355.01 78.9823 353.974 78.2837C352.95 77.5851 352.131 76.6938 351.517 75.6099C350.903 74.5259 350.596 73.2432 350.596 71.7617H356.034C356.034 72.5807 356.16 73.2733 356.413 73.8394C356.666 74.4054 357.021 74.8631 357.479 75.2124C357.949 75.5617 358.503 75.8146 359.141 75.9712C359.792 76.1278 360.502 76.2061 361.273 76.2061C362.212 76.2061 362.983 76.0736 363.585 75.8086C364.2 75.5436 364.651 75.1763 364.94 74.7065C365.242 74.2368 365.392 73.7069 365.392 73.1167Z" fill="url(#paint0_linear_1_11)"/>
</g>
<defs>
<filter id="filter0_d_1_11" x="0" y="0" width="438" height="164" filterUnits="userSpaceOnUse" color-interpolation-filters="sRGB">
<feFlood flood-opacity="0" result="BackgroundImageFix"/>
<feColorMatrix in="SourceAlpha" type="matrix" values="0 0 0 0 0 0 0 0 0 0 0 0 0 0 0 0 0 0 127 0" result="hardAlpha"/>
<feOffset dy="15"/>
<feGaussianBlur stdDeviation="15"/>
<feComposite in2="hardAlpha" operator="out"/>
<feColorMatrix type="matrix" values="0 0 0 0 0.228292 0 0 0 0 0.987138 0 0 0 0 1 0 0 0 0.25 0"/>
<feBlend mode="normal" in2="BackgroundImageFix" result="effect1_dropShadow_1_11"/>
<feBlend mode="normal" in="SourceGraphic" in2="effect1_dropShadow_1_11" result="shape"/>
</filter>
<linearGradient id="paint0_linear_1_11" x1="30" y1="67.5" x2="408" y2="67.5" gradientUnits="userSpaceOnUse">
<stop offset="0.0865385" stop-color="#5CFF43"/>
<stop offset="0.475962" stop-color="#6FEEFA"/>
<stop offset="0.841346" stop-color="#BA81FF"/>
</linearGradient>
</defs>
</svg>
